<svg id="Layer_1" data-name="Layer 1" xmlns="http://www.w3.org/2000/svg" viewBox="0 0 511 499.74"><path d="M256.53,31c127.34,0,230.65,103.31,230.65,230.66,0,101.84-66.07,188.3-157.7,219a21.45,21.45,0,0,1-3.91.36c-8.66,0-11.68-6.2-11.68-11.47V406.11c0-21.64-7.2-35.46-15.65-42.66,51.37-5.68,105.45-25.24,105.45-113.84,0-25.24-9-45.94-23.73-61.85,2.4-6,10.22-29.41-2.4-61.27a19.26,19.26,0,0,0-5.89-.78c-21.07,0-57.52,24.51-57.52,24.51a216.6,216.6,0,0,0-115.35,0s-36.4-24.51-57.73-24.51a21.3,21.3,0,0,0-5.94.78c-12.31,31.86-4.49,55.28-2.09,61.27-14.71,15.91-23.73,36.66-23.73,61.85,0,88.29,53.77,108.16,105.13,113.84-6.62,6-12.62,15.91-14.7,30.93-5.84,2.65-15.65,6.1-26.55,6.1-13.76,0-29.2-5.58-40.46-25.35a48.47,48.47,0,0,0-35.46-23.72h-.68c-21.44,0-.84,14.13-.84,14.13,15,6.88,25.56,33.63,25.56,33.63,8.08,24.62,34.36,29.57,54.13,29.57a124.61,124.61,0,0,0,23.67-2.24c0,19.24.31,37.55.31,43,0,5.27-3.23,11.47-12,11.47a21.45,21.45,0,0,1-3.91-.36C92,450,25.87,363.45,25.87,261.66,25.87,134.31,129.18,31,256.53,31m0-24.82A255.46,255.46,0,0,0,50.28,412.52a257.32,257.32,0,0,0,55.22,55.33,254.51,254.51,0,0,0,70.14,36.35l1.73.57,1.77.32a46.09,46.09,0,0,0,8.34.78c11.21,0,21.23-4.38,28.11-12.41a36.54,36.54,0,0,0,8.71-23.94c0-2-.05-5.37-.11-10-.1-8.66-.2-20.5-.2-32.91V400.42l.36-2.55c1.36-9.75,4.85-14.24,6.83-16l24.46-22.22,26.49,22.69c1.15,1,6.94,6.83,6.94,23.78v63.36c0,20.7,15.69,36.35,36.55,36.35a44.7,44.7,0,0,0,8.29-.79l1.78-.31,1.72-.57a255.55,255.55,0,0,0-80.88-498Zm-.16,337-39.16-4.32c-27.12-3-45.74-9.44-58.57-20.29-16.42-13.82-24.45-36.35-24.45-68.89,0-17.57,5.78-32.7,17.1-45l10.64-11.53-5.84-14.55c-.89-2.19-4-11.1-2.45-24.51,3.44,1.36,7.56,3.24,12.41,5.74,10.48,5.42,18.82,11,18.93,11.06l9.49,6.41,11-3.08a192.2,192.2,0,0,1,51-6.88,194.16,194.16,0,0,1,51,6.88l11.11,3.08,9.49-6.41A217.61,217.61,0,0,1,347,159.76c4.9-2.55,9-4.38,12.31-5.74,1.61,13.41-1.46,22.32-2.35,24.51l-5.84,14.55,10.64,11.53c11.37,12.3,17.1,27.43,17.1,45,0,32.59-8,55.12-24.56,68.94-12.88,10.74-31.55,17.16-58.77,20.18l-39.11,4.38Z" transform="translate(-1 -6.13)"/></svg>