<svg id="Layer_1" data-name="Layer 1" xmlns="http://www.w3.org/2000/svg" viewBox="0 0 512 512"><path d="M140,423H110a20,20,0,0,1-20-20V217a20,20,0,0,1,20-20h30a20,20,0,0,1,20,20V403A20,20,0,0,1,140,423Zm27-298a41,41,0,1,0-41,41A41,41,0,0,0,167,125ZM422,403V298.66C422,238,409.18,193,338.31,193c-34.05,0-56.91,17-66.24,34.74H272V217a20,20,0,0,0-20-20H224a20,20,0,0,0-20,20V403a20,20,0,0,0,20,20h28a20,20,0,0,0,20-20V310.79c0-29.39,7.48-57.86,43.91-57.86,35.93,0,37.09,33.61,37.09,59.73V403a20,20,0,0,0,20,20h29A20,20,0,0,0,422,403Zm90,29a20,20,0,0,0-40,0,40.05,40.05,0,0,1-40,40H80a40.05,40.05,0,0,1-40-40V80A40.05,40.05,0,0,1,80,40H432a40.05,40.05,0,0,1,40,40V331a20,20,0,0,0,40,0V80A80.09,80.09,0,0,0,432,0H80A80.09,80.09,0,0,0,0,80V432a80.09,80.09,0,0,0,80,80H432A80.09,80.09,0,0,0,512,432Z"/></svg>