<svg id="Layer_1" data-name="Layer 1" xmlns="http://www.w3.org/2000/svg" viewBox="0 0 512 417"><path d="M451.25,115l-.25-1c21.69-13,39.21-34.44,47-59a218.35,218.35,0,0,1-68,26c-19.17-20.42-44.75-33-75-33-58,0-106,46.94-106,105a196.4,196.4,0,0,0,1.71,25.06c-51-4-99-20.52-142.88-49.38-38.3-25.2-58.95-50.85-59.13-51.07A20,20,0,0,0,13.23,93c.48,3.1,10.24,64.33,47.15,117.68a52.76,52.76,0,0,1-14.72-4.22,19.59,19.59,0,0,0-22.39,1.72,20.12,20.12,0,0,0-6.27,22c.84,2.57,18.39,53.75,82.48,80.87A102.28,102.28,0,0,1,73.41,315H73a20,20,0,0,0-12.23,35.83c1.55,1.19,30.23,23,76.85,34-16.3,9-35.55,14.38-57.6,16.14a197.26,197.26,0,0,1-55.25-3.39,20,20,0,0,0-12.48,37.87C15.18,436.66,83.78,465,152,465c47.36,0,82.84-4.32,115-14,40.15-12.07,74.24-32.66,104.21-62.94a20,20,0,1,0-28.43-28.14C289.35,413.93,227.87,425,152,425c-1.77,0-3.55,0-5.33-.07a149.49,149.49,0,0,0,53.8-41.25A20,20,0,0,0,185.59,351a193.65,193.65,0,0,1-54.52-9.58A87.73,87.73,0,0,0,162,316a20,20,0,0,0-12.46-31.68c-33.58-6-55.88-19.55-70.34-32.86a140,140,0,0,0,26.66-4.05,20,20,0,0,0,9-33.81c-18.13-17.47-31.3-39.11-40.73-59.54q4.93,3.54,10.28,7.1C124.14,187.55,189.43,219,275,219a20,20,0,0,0,19.31-25.23A178.41,178.41,0,0,1,289,153a64,64,0,0,1,19.36-45.8A66.05,66.05,0,0,1,355,88c17.73,0,33.15,6.86,45.84,20.38C410,117,420,140,420,153.88V166a12.24,12.24,0,0,0,.15,1.68A19.79,19.79,0,0,0,420,170c0,45.47-8.41,85.94-25,120.3a20,20,0,0,0,36,17.4c19.24-39.83,29-86.16,29-137.7a20.91,20.91,0,0,0-.13-2.25A13.86,13.86,0,0,0,460,166V152c20.55-14.84,37.95-34.88,52-56C512,96,475.13,113.47,451.25,115Z" transform="translate(0 -48)"/></svg>